<svg width="598" height="168" viewBox="0 0 598 168" fill="none" xmlns="http://www.w3.org/2000/svg">
<g clip-path="url(#clip0_500_174)">
<path d="M120.35 46.3701C120.35 46.3701 120.197 48.7835 119.89 53.6101C119.59 58.4368 119.424 62.8035 119.39 66.7101C119.364 70.6101 119.287 74.5701 119.16 78.5901C119.04 82.6101 118.984 86.3735 118.99 89.8801C118.997 93.3868 119.014 96.8901 119.04 100.39C119.074 103.89 119.08 108.383 119.06 113.87C119.047 119.35 119.084 123.903 119.17 127.53C119.264 131.163 119.417 134.92 119.63 138.8C119.85 142.68 119.994 145.553 120.06 147.42C120.127 149.28 120.054 150.85 119.84 152.13C119.634 153.417 119.224 154.633 118.61 155.78C118.004 156.933 117.227 157.957 116.28 158.85C115.334 159.743 114.27 160.463 113.09 161.01C111.91 161.55 110.677 161.89 109.39 162.03C108.097 162.17 106.814 162.1 105.54 161.82C104.274 161.54 103.084 161.067 101.97 160.4C100.857 159.727 99.877 158.893 99.0303 157.9C98.1903 156.907 97.5303 155.807 97.0503 154.6C96.5703 153.393 96.297 152.14 96.2303 150.84C96.157 149.54 96.2936 148.263 96.6403 147.01C96.9936 145.757 97.5336 144.59 98.2603 143.51C98.9936 142.437 99.8803 141.507 100.92 140.72C101.954 139.933 103.087 139.333 104.32 138.92C105.554 138.507 106.82 138.3 108.12 138.3C109.42 138.3 110.684 138.51 111.91 138.93C113.144 139.343 114.277 139.943 115.31 140.73C116.344 141.517 117.227 142.45 117.96 143.53C118.687 144.61 119.224 145.777 119.57 147.03C119.917 148.283 120.054 149.56 119.98 150.86C119.914 152.153 119.637 153.407 119.15 154.62C118.67 155.827 118.01 156.923 117.17 157.91C116.324 158.903 115.344 159.737 114.23 160.41C113.11 161.077 111.917 161.55 110.65 161.83C109.384 162.11 108.104 162.177 106.81 162.03C105.517 161.89 104.28 161.547 103.1 161C101.92 160.453 100.86 159.73 99.9203 158.83C98.9736 157.937 98.197 156.917 97.5903 155.77C96.9836 154.617 96.5736 153.4 96.3603 152.12C96.1536 150.833 96.0503 150.19 96.0503 150.19C96.0503 150.19 96.1236 148.697 96.2703 145.71C96.417 142.723 96.587 139.77 96.7803 136.85C96.9803 133.93 97.257 130.437 97.6103 126.37C97.9636 122.303 98.357 117.81 98.7903 112.89C99.2303 107.97 99.487 103.733 99.5603 100.18C99.6336 96.6268 99.727 93.0435 99.8403 89.4301C99.9536 85.8168 100.077 82.0668 100.21 78.1801C100.337 74.2868 100.43 70.3568 100.49 66.3901C100.55 62.4235 100.537 58.0201 100.45 53.1801C100.357 48.3468 100.37 45.5335 100.49 44.7401C100.604 43.9401 100.81 43.1668 101.11 42.4201C101.417 41.6735 101.804 40.9735 102.27 40.3201C102.744 39.6668 103.287 39.0801 103.9 38.5601C104.514 38.0401 105.184 37.6001 105.91 37.2401C106.63 36.8868 107.384 36.6201 108.17 36.4401C108.957 36.2668 109.747 36.1901 110.54 36.2101C111.347 36.2235 112.14 36.3368 112.92 36.5501C113.7 36.7568 114.44 37.0568 115.14 37.4501C115.847 37.8368 116.497 38.3068 117.09 38.8601C117.677 39.4068 118.194 40.0168 118.64 40.6901C119.08 41.3568 119.434 42.0701 119.7 42.8301C119.974 43.5901 120.15 44.3701 120.23 45.1701C120.31 45.9701 120.35 46.3701 120.35 46.3701Z" fill="#F0F0F0"/>
<path d="M101.716 80.773C101.716 80.773 103.752 79.8848 107.824 78.1085C111.901 76.3394 115.327 74.7505 118.101 73.3417C120.883 71.927 123.854 70.5624 127.015 69.2479C130.176 67.9268 133.278 66.7142 136.32 65.6102C139.355 64.5055 143.505 63.0908 148.77 61.366C154.028 59.6407 158.374 58.1696 161.808 56.9527C165.248 55.7365 167.515 54.9156 168.61 54.49C169.705 54.0644 170.845 53.6595 172.03 53.2753C173.215 52.8911 174.432 52.7072 175.682 52.7236C176.926 52.7394 178.138 52.9566 179.319 53.3752C180.494 53.7865 181.573 54.3768 182.556 55.146C183.54 55.9085 184.374 56.8118 185.058 57.8559C185.743 58.8933 186.243 60.0149 186.559 61.2205C186.881 62.4267 187 63.652 186.918 64.8962C186.835 66.1404 186.552 67.3402 186.069 68.4956C185.593 69.6449 184.945 70.6888 184.126 71.6273C183.308 72.5657 182.362 73.3524 181.288 73.9874C180.209 74.6151 179.06 75.0526 177.84 75.2999C176.62 75.5539 175.39 75.6062 174.152 75.457C172.914 75.3078 171.733 74.9629 170.609 74.4222C169.485 73.8816 168.477 73.177 167.583 72.3086C166.689 71.4401 165.956 70.452 165.384 69.3443C164.813 68.2365 164.434 67.0655 164.248 65.8311C164.062 64.5967 164.08 63.3668 164.302 62.1416C164.518 60.9091 164.925 59.7469 165.523 58.6552C166.121 57.5635 166.879 56.5929 167.797 55.7435C168.714 54.9007 169.741 54.2248 170.877 53.7158C172.019 53.2074 173.211 52.8941 174.453 52.7759C175.688 52.6572 176.916 52.7385 178.136 53.02C179.348 53.3075 180.485 53.779 181.545 54.4345C182.605 55.09 183.531 55.8977 184.323 56.8575C185.114 57.824 185.733 58.8891 186.18 60.0528C186.626 61.2164 186.875 62.4195 186.926 63.6621C186.983 64.912 186.835 66.1337 186.483 67.3274C186.136 68.5283 185.603 69.6391 184.884 70.66C184.172 71.6814 183.314 72.563 182.312 73.3046C181.31 74.0462 180.809 74.417 180.809 74.417C180.815 74.4176 179.583 74.8813 177.113 75.8081C174.649 76.7288 171.558 77.668 167.84 78.6255C164.128 79.5835 159.84 80.7017 154.976 81.9799C150.112 83.2581 146.289 84.3369 143.508 85.2163C140.726 86.0957 137.952 87.046 135.185 88.0672C132.419 89.0818 129.597 90.232 126.72 91.5179C123.85 92.7977 120.432 94.4443 116.467 96.4575C112.509 98.4713 110.133 99.6073 109.341 99.8655C108.554 100.131 107.747 100.294 106.918 100.355C106.089 100.422 105.266 100.387 104.448 100.248C103.63 100.115 102.841 99.8853 102.08 99.5573C101.312 99.2287 100.596 98.8143 99.9306 98.314C99.2719 97.8143 98.68 97.2401 98.1548 96.5915C97.6291 95.9496 97.1887 95.2516 96.8334 94.4976C96.4849 93.7441 96.2258 92.9617 96.0564 92.1503C95.8941 91.333 95.8329 90.5077 95.8728 89.6747C95.9049 88.8543 96.0363 88.0461 96.2671 87.2499C96.505 86.4477 96.833 85.6869 97.2511 84.9675C97.6692 84.248 98.1653 83.5923 98.7394 83.0004C99.3208 82.4025 99.9624 81.8801 100.664 81.4333C101.366 80.9931 101.716 80.773 101.716 80.773Z" fill="#F0F0F0"/>
<path d="M116.874 88.0475C116.874 88.0475 118.304 89.2241 121.164 91.5775C124.024 93.9308 126.727 96.0975 129.274 98.0775C131.821 100.057 134.354 101.941 136.874 103.727C139.387 105.507 142.017 107.381 144.764 109.347C147.511 111.307 151.324 113.751 156.204 116.677C161.091 119.611 165.894 122.354 170.614 124.907C175.327 127.461 179.754 129.717 183.894 131.677C188.034 133.644 191.811 135.324 195.224 136.717C198.637 138.111 200.861 139.207 201.894 140.007C202.927 140.807 203.807 141.747 204.534 142.827C205.261 143.914 205.794 145.087 206.134 146.347C206.474 147.607 206.604 148.887 206.524 150.187C206.444 151.494 206.157 152.751 205.664 153.957C205.171 155.164 204.497 156.264 203.644 157.257C202.797 158.244 201.811 159.071 200.684 159.737C199.564 160.397 198.364 160.864 197.084 161.137C195.811 161.411 194.524 161.471 193.224 161.317C191.931 161.171 190.694 160.817 189.514 160.257C188.334 159.704 187.274 158.974 186.334 158.067C185.394 157.161 184.621 156.131 184.014 154.977C183.414 153.817 183.014 152.594 182.814 151.307C182.607 150.014 182.614 148.727 182.834 147.447C183.054 146.161 183.474 144.941 184.094 143.787C184.714 142.641 185.501 141.624 186.454 140.737C187.414 139.844 188.487 139.127 189.674 138.587C190.861 138.047 192.104 137.711 193.404 137.577C194.697 137.451 195.981 137.531 197.254 137.817C198.527 138.111 199.721 138.597 200.834 139.277C201.947 139.957 202.924 140.797 203.764 141.797C204.597 142.797 205.251 143.904 205.724 145.117C206.197 146.337 206.467 147.597 206.534 148.897C206.594 150.204 206.444 151.484 206.084 152.737C205.724 153.991 205.174 155.154 204.434 156.227C203.694 157.307 202.804 158.237 201.764 159.017C200.717 159.797 199.574 160.391 198.334 160.797C197.094 161.204 195.821 161.404 194.514 161.397C193.214 161.391 191.947 161.174 190.714 160.747C189.481 160.321 188.864 160.107 188.864 160.107C188.864 160.107 187.261 159.274 184.054 157.607C180.847 155.941 177.244 154.004 173.244 151.797C169.237 149.597 164.877 147.087 160.164 144.267C155.451 141.447 151.467 139.121 148.214 137.287C144.954 135.461 142.184 133.694 139.904 131.987C137.624 130.281 135.107 128.421 132.354 126.407C129.607 124.394 126.874 122.367 124.154 120.327C121.441 118.287 118.811 116.217 116.264 114.117C113.717 112.011 111.014 109.787 108.154 107.447C105.287 105.101 103.567 103.627 102.994 103.027C102.421 102.434 101.931 101.777 101.524 101.057C101.111 100.344 100.791 99.5908 100.564 98.7975C100.337 98.0041 100.207 97.1941 100.174 96.3675C100.141 95.5475 100.207 94.7341 100.374 93.9275C100.547 93.1208 100.811 92.3441 101.164 91.5975C101.517 90.8508 101.957 90.1575 102.484 89.5175C103.004 88.8841 103.597 88.3175 104.264 87.8175C104.924 87.3241 105.634 86.9175 106.394 86.5975C107.154 86.2775 107.941 86.0508 108.754 85.9175C109.574 85.7908 110.391 85.7608 111.204 85.8275C112.031 85.8941 112.834 86.0608 113.614 86.3275C114.394 86.5875 115.134 86.9408 115.834 87.3875C116.527 87.8275 116.874 88.0475 116.874 88.0475Z" fill="#F0F0F0"/>
<path d="M217.521 70.8085C217.521 70.8085 217.314 72.5152 216.901 75.9285C216.487 79.3419 216.037 82.7285 215.551 86.0885C215.064 89.4552 214.687 92.6452 214.421 95.6585C214.161 98.6785 213.937 101.635 213.751 104.529C213.564 107.429 213.397 111.325 213.251 116.219C213.097 121.105 213.077 125.289 213.191 128.769C213.297 132.249 213.487 135.169 213.761 137.529C214.034 139.882 214.267 141.712 214.461 143.019C214.647 144.325 214.624 145.625 214.391 146.919C214.157 148.219 213.721 149.445 213.081 150.599C212.447 151.752 211.644 152.772 210.671 153.659C209.697 154.552 208.611 155.265 207.411 155.799C206.211 156.332 204.954 156.659 203.641 156.779C202.327 156.899 201.031 156.805 199.751 156.499C198.464 156.192 197.264 155.692 196.151 154.999C195.031 154.299 194.054 153.439 193.221 152.419C192.381 151.399 191.727 150.272 191.261 149.039C190.794 147.812 190.537 146.539 190.491 145.219C190.437 143.899 190.601 142.609 190.981 141.349C191.354 140.082 191.917 138.912 192.671 137.839C193.431 136.759 194.341 135.829 195.401 135.049C196.467 134.269 197.627 133.679 198.881 133.279C200.141 132.879 201.427 132.689 202.741 132.709C204.061 132.735 205.341 132.969 206.581 133.409C207.814 133.849 208.951 134.479 209.991 135.299C211.024 136.112 211.901 137.069 212.621 138.169C213.341 139.275 213.867 140.465 214.201 141.739C214.534 143.019 214.654 144.315 214.561 145.629C214.461 146.942 214.157 148.205 213.651 149.419C213.144 150.639 212.454 151.742 211.581 152.729C210.714 153.722 209.711 154.549 208.571 155.209C207.437 155.869 206.224 156.329 204.931 156.589C203.637 156.849 202.337 156.895 201.031 156.729C199.724 156.569 198.477 156.202 197.291 155.629C196.104 155.055 195.041 154.305 194.101 153.379C193.161 152.459 192.391 151.412 191.791 150.239C191.191 149.059 190.891 148.472 190.891 148.479C190.891 148.479 190.711 146.029 190.351 141.129C189.984 136.229 189.907 131.932 190.121 128.239C190.341 124.552 190.674 120.109 191.121 114.909C191.574 109.709 191.947 105.599 192.241 102.579C192.541 99.5585 192.877 96.3585 193.251 92.9785C193.631 89.5985 194.077 86.3285 194.591 83.1685C195.104 80.0085 195.581 76.7252 196.021 73.3185C196.461 69.9119 196.784 67.7985 196.991 66.9785C197.197 66.1585 197.497 65.3785 197.891 64.6385C198.284 63.8919 198.761 63.2019 199.321 62.5685C199.887 61.9419 200.517 61.3885 201.211 60.9085C201.911 60.4352 202.654 60.0485 203.441 59.7485C204.234 59.4552 205.047 59.2585 205.881 59.1585C206.714 59.0585 207.551 59.0619 208.391 59.1685C209.231 59.2685 210.044 59.4719 210.831 59.7785C211.617 60.0785 212.357 60.4685 213.051 60.9485C213.744 61.4352 214.371 61.9952 214.931 62.6285C215.484 63.2619 215.957 63.9519 216.351 64.6985C216.737 65.4519 217.031 66.2385 217.231 67.0585C217.431 67.8785 217.527 68.7052 217.521 69.5385C217.521 70.3852 217.521 70.8085 217.521 70.8085Z" fill="#F0F0F0"/>
<path d="M198.85 32.0916C198.85 32.0916 200.282 31.4628 203.144 30.2053C206.012 28.9477 209.221 27.7566 212.77 26.6318C216.32 25.5 219.991 24.3577 223.785 23.2049C227.573 22.0452 231.54 20.9134 235.686 19.8096C239.826 18.7057 244.363 17.5355 249.299 16.2989C254.234 15.0623 258.999 13.8572 263.593 12.6834C268.188 11.5097 272.688 10.336 277.095 9.16231C281.502 7.99559 285.597 6.86729 289.379 5.77741C293.162 4.69452 296.277 3.75835 298.725 2.96889C301.172 2.17244 303.279 1.49127 305.045 0.925372C306.806 0.352489 308.064 0.0485824 308.819 0.0136505C309.569 -0.0282678 310.304 0.0800185 311.026 0.338515C311.747 0.597011 312.417 0.988251 313.036 1.51223C313.655 2.04319 314.189 2.67895 314.638 3.41951C315.086 4.16007 315.427 4.97049 315.66 5.85077C315.893 6.73105 316.003 7.6323 315.992 8.5545C315.986 9.48369 315.859 10.3849 315.609 11.2582C315.365 12.1315 315.01 12.9315 314.544 13.658C314.084 14.3916 313.542 15.0134 312.917 15.5234C312.286 16.0334 311.608 16.4072 310.881 16.6447C310.154 16.8823 309.416 16.9731 308.666 16.9172C307.916 16.8543 307.195 16.6482 306.502 16.2989C305.804 15.9426 305.17 15.464 304.602 14.8632C304.035 14.2554 303.56 13.5533 303.18 12.7568C302.799 11.9534 302.532 11.101 302.379 10.1998C302.226 9.29156 302.195 8.37984 302.285 7.46462C302.371 6.54242 302.575 5.66563 302.899 4.83425C303.222 3.99589 303.646 3.24485 304.168 2.58114C304.696 1.91744 305.292 1.3725 305.957 0.946331C306.627 0.520162 307.334 0.237213 308.078 0.0974849C308.822 -0.0422427 309.563 -0.0317644 310.302 0.128922C311.046 0.289609 311.747 0.590024 312.406 1.03017C313.064 1.47729 313.649 2.0397 314.161 2.71738C314.672 3.39506 315.083 4.15657 315.396 5.00192C315.702 5.84029 315.893 6.72057 315.967 7.64278C316.04 8.56498 315.992 9.4767 315.822 10.3779C315.651 11.2792 315.367 12.1245 314.97 12.914C314.578 13.6965 314.092 14.3846 313.513 14.9785C312.934 15.5723 312.292 16.0334 311.588 16.3618C310.889 16.6971 310.54 16.8648 310.54 16.8648C310.54 16.8648 308.373 17.1827 304.04 17.8184C299.707 18.4612 295.663 19.2087 291.91 20.0611C288.161 20.9134 284.106 21.9823 279.745 23.2678C275.389 24.5463 270.97 25.9122 266.489 27.3653C262.009 28.8115 257.329 30.4289 252.451 32.2174C247.566 34.0059 243.125 35.5359 239.127 36.8074C235.123 38.0859 231.205 39.3644 227.371 40.6429C223.538 41.9214 219.983 43.0323 216.706 43.9754C213.423 44.9116 210.311 45.8688 207.369 46.8468C204.427 47.8249 202.684 48.3734 202.139 48.4921C201.593 48.6179 201.048 48.6598 200.503 48.6179C199.947 48.583 199.404 48.4642 198.876 48.2616C198.342 48.052 197.837 47.7725 197.36 47.4232C196.888 47.0669 196.457 46.6477 196.065 46.1657C195.667 45.6836 195.327 45.1526 195.043 44.5728C194.753 43.9859 194.526 43.3676 194.361 42.7179C194.196 42.0612 194.097 41.394 194.063 40.7163C194.029 40.0386 194.06 39.3644 194.157 38.6937C194.259 38.023 194.424 37.3768 194.651 36.755C194.878 36.1262 195.162 35.5429 195.503 35.0049C195.843 34.467 196.232 33.9884 196.67 33.5692C197.107 33.15 197.578 32.7972 198.084 32.5108C198.595 32.2313 198.85 32.0916 198.85 32.0916Z" fill="#F0F0F0"/>
<path d="M351.095 67.0691C351.095 67.0691 349.932 68.0625 347.605 70.0492C345.279 72.0425 342.382 74.7025 338.915 78.0292C335.449 81.3491 332.599 84.2858 330.365 86.8391C328.132 89.3925 325.919 89.2292 323.725 86.3492C321.532 83.4692 321.932 81.2458 324.925 79.6791C327.919 78.1058 332.102 77.5858 337.475 78.1192C342.842 78.6458 347.832 79.1725 352.445 79.6992C357.052 80.2325 361.405 80.7325 365.505 81.1992C369.599 81.6658 374.009 82.9425 378.735 85.0292C383.455 87.1158 386.499 89.4191 387.865 91.9391C389.239 94.4591 389.455 97.5791 388.515 101.299C387.575 105.019 385.455 108.452 382.155 111.599C378.862 114.739 375.202 117.672 371.175 120.399C367.149 123.126 363.885 125.339 361.385 127.039C358.885 128.732 356.089 130.522 352.995 132.409C349.909 134.289 345.945 136.722 341.105 139.709C336.265 142.696 332.619 144.996 330.165 146.609C327.719 148.216 324.935 150.106 321.815 152.279C318.695 154.452 315.912 156.536 313.465 158.529C311.019 160.516 307.159 162.429 301.885 164.269C296.612 166.102 293.362 166.696 292.135 166.049C290.909 165.402 289.815 164.576 288.855 163.569C287.902 162.562 287.132 161.432 286.545 160.179C285.959 158.919 285.589 157.599 285.435 156.219C285.282 154.839 285.355 153.472 285.655 152.119C285.949 150.759 286.452 149.486 287.165 148.299C287.879 147.106 288.762 146.059 289.815 145.159C290.875 144.259 292.049 143.549 293.335 143.029C294.622 142.516 295.959 142.219 297.345 142.139C298.732 142.066 300.095 142.212 301.435 142.579C302.769 142.946 304.012 143.519 305.165 144.299C306.312 145.072 307.309 146.012 308.155 147.119C308.995 148.219 309.639 149.426 310.085 150.739C310.532 152.059 310.755 153.412 310.755 154.799C310.755 156.186 310.535 157.536 310.095 158.849C309.655 160.169 309.019 161.382 308.185 162.489C307.345 163.596 306.352 164.539 305.205 165.319C304.059 166.099 302.815 166.676 301.475 167.049C300.142 167.422 298.782 167.572 297.395 167.499C296.009 167.426 294.669 167.136 293.375 166.629C292.089 166.116 290.915 165.409 289.855 164.509C288.795 163.616 287.905 162.576 287.185 161.389C286.472 160.202 285.965 158.929 285.665 157.569C285.359 156.216 285.282 154.849 285.435 153.469C285.582 152.089 285.945 150.769 286.525 149.509C287.105 148.249 287.872 147.112 288.825 146.099C289.779 145.092 290.865 144.262 292.085 143.609C293.312 142.956 294.612 142.516 295.985 142.289C297.352 142.062 298.719 142.062 300.085 142.289C301.459 142.509 302.145 142.619 302.145 142.619C302.145 142.619 300.702 142.452 297.815 142.119C294.929 141.786 294.902 140.566 297.735 138.459C300.569 136.352 303.742 134.149 307.255 131.849C310.769 129.556 313.799 127.522 316.345 125.749C318.885 123.976 322.522 121.542 327.255 118.449C331.995 115.362 335.682 112.889 338.315 111.029C340.949 109.169 343.489 107.302 345.935 105.429C348.395 103.556 352.055 101.976 356.915 100.689C361.775 99.3958 364.819 100.222 366.045 103.169C367.272 106.109 365.952 107.319 362.085 106.799C358.219 106.279 353.985 105.742 349.385 105.189C344.792 104.636 340.309 104.146 335.935 103.719C331.569 103.292 327.082 103.002 322.475 102.849C317.875 102.696 313.949 101.796 310.695 100.149C307.449 98.5092 305.769 94.6358 305.655 88.5292C305.535 82.4292 306.895 77.9958 309.735 75.2291C312.575 72.4625 315.682 69.6025 319.055 66.6491C322.429 63.6891 325.199 61.2825 327.365 59.4291C329.532 57.5758 331.815 55.6958 334.215 53.7891C336.615 51.8825 338.169 50.7025 338.875 50.2491C339.582 49.8025 340.335 49.4425 341.135 49.1691C341.929 48.9025 342.745 48.7325 343.585 48.6591C344.412 48.5858 345.242 48.6158 346.075 48.7491C346.902 48.8825 347.702 49.1125 348.475 49.4391C349.255 49.7658 349.982 50.1791 350.655 50.6791C351.329 51.1791 351.932 51.7558 352.465 52.4091C352.999 53.0558 353.445 53.7591 353.805 54.5191C354.172 55.2725 354.442 56.0625 354.615 56.8891C354.782 57.7091 354.852 58.5358 354.825 59.3691C354.792 60.2091 354.662 61.0325 354.435 61.8391C354.202 62.6458 353.879 63.4158 353.465 64.1491C353.045 64.8758 352.545 65.5458 351.965 66.1591C351.385 66.7658 351.095 67.0691 351.095 67.0691Z" fill="#F0F0F0"/>
<path d="M407.07 51.3276C407.07 51.3276 407.19 53.3442 407.43 57.3776C407.67 61.4109 407.923 65.3309 408.19 69.1376C408.45 72.9442 408.73 76.5476 409.03 79.9476C409.33 83.3542 409.706 87.0209 410.16 90.9476C410.606 94.8742 411.086 98.6676 411.6 102.328C412.12 105.988 412.633 109.644 413.14 113.298C413.646 116.958 414.56 121.428 415.88 126.708C417.2 131.994 418.286 136.304 419.14 139.638C419.986 142.964 420.47 145.651 420.59 147.698C420.716 149.744 421.07 151.321 421.65 152.428C422.236 153.534 422.63 154.708 422.83 155.948C423.03 157.181 423.03 158.414 422.83 159.648C422.623 160.888 422.226 162.058 421.64 163.158C421.053 164.264 420.303 165.248 419.39 166.108C418.483 166.968 417.46 167.661 416.32 168.188C415.186 168.708 413.996 169.034 412.75 169.168C411.503 169.301 410.27 169.234 409.05 168.968C407.83 168.694 406.683 168.234 405.61 167.588C404.536 166.941 403.596 166.141 402.79 165.188C401.976 164.228 401.34 163.168 400.88 162.008C400.42 160.841 400.156 159.634 400.09 158.388C400.023 157.134 400.16 155.904 400.5 154.698C400.833 153.498 401.353 152.378 402.06 151.338C402.76 150.304 403.61 149.411 404.61 148.658C405.61 147.898 406.703 147.321 407.89 146.928C409.076 146.528 410.293 146.328 411.54 146.328C412.793 146.334 414.013 146.538 415.2 146.938C416.386 147.338 417.476 147.918 418.47 148.678C419.463 149.438 420.313 150.334 421.02 151.368C421.72 152.408 422.236 153.531 422.57 154.738C422.903 155.944 423.033 157.171 422.96 158.418C422.893 159.671 422.626 160.878 422.16 162.038C421.693 163.198 421.053 164.254 420.24 165.208C419.433 166.161 418.49 166.961 417.41 167.608C416.336 168.248 415.19 168.701 413.97 168.968C412.75 169.234 411.516 169.301 410.27 169.168C409.023 169.028 407.833 168.694 406.7 168.168C405.566 167.641 404.546 166.948 403.64 166.088C402.733 165.221 402.28 164.788 402.28 164.788C402.28 164.794 401.766 163.251 400.74 160.158C399.713 157.071 399 153.764 398.6 150.238C398.206 146.704 397.666 142.574 396.98 137.848C396.293 133.121 395.66 129.204 395.08 126.098C394.5 122.991 393.973 119.611 393.5 115.958C393.026 112.304 392.546 108.618 392.06 104.898C391.573 101.184 391.033 97.1909 390.44 92.9176C389.84 88.6442 389.443 84.7842 389.25 81.3376C389.05 77.8976 388.823 74.2776 388.57 70.4776C388.316 66.6776 388.033 62.7642 387.72 58.7376C387.406 54.7042 387.27 52.2909 387.31 51.4976C387.356 50.7042 387.493 49.9242 387.72 49.1576C387.953 48.3909 388.273 47.6642 388.68 46.9776C389.086 46.2909 389.57 45.6642 390.13 45.0976C390.69 44.5242 391.31 44.0309 391.99 43.6176C392.67 43.1976 393.39 42.8642 394.15 42.6176C394.91 42.3776 395.69 42.2276 396.49 42.1676C397.276 42.1142 398.063 42.1576 398.85 42.2976C399.636 42.4309 400.396 42.6609 401.13 42.9876C401.856 43.3076 402.536 43.7109 403.17 44.1976C403.803 44.6842 404.37 45.2409 404.87 45.8676C405.37 46.4876 405.786 47.1609 406.12 47.8876C406.453 48.6142 406.693 49.3709 406.84 50.1576C406.993 50.9376 407.07 51.3276 407.07 51.3276Z" fill="#F0F0F0"/>
<path d="M400.415 41.3432C400.415 41.3432 401.868 41.1598 404.775 40.7932C407.695 40.4265 410.641 40.1365 413.615 39.9232C416.588 39.7098 419.621 39.5565 422.715 39.4632C425.801 39.3698 428.835 39.2898 431.815 39.2232C434.788 39.1632 438.845 39.0098 443.985 38.7632C449.125 38.5098 453.621 38.1998 457.475 37.8332C461.328 37.4665 464.775 37.0798 467.815 36.6732C470.855 36.2665 472.658 35.8998 473.225 35.5732C473.791 35.2532 474.571 35.1132 475.565 35.1532C476.558 35.1932 477.531 35.3532 478.485 35.6332C479.445 35.9132 480.355 36.3032 481.215 36.8032C482.075 37.3032 482.861 37.8965 483.575 38.5832C484.295 39.2765 484.918 40.0432 485.445 40.8832C485.978 41.7232 486.401 42.6165 486.715 43.5632C487.028 44.5098 487.221 45.4798 487.295 46.4732C487.375 47.4598 487.335 48.4465 487.175 49.4332C487.015 50.4132 486.738 51.3565 486.345 52.2632C485.951 53.1765 485.455 54.0298 484.855 54.8232C484.255 55.6232 483.568 56.3365 482.795 56.9632C482.028 57.5898 481.195 58.1165 480.295 58.5432C479.395 58.9632 478.455 59.2732 477.475 59.4732C476.501 59.6665 477.405 59.0332 480.185 57.5732C482.958 56.1065 483.445 56.5165 481.645 58.8032C479.838 61.0898 477.625 63.8598 475.005 67.1132C472.385 70.3665 469.145 74.2998 465.285 78.9132C461.418 83.5332 458.368 87.1498 456.135 89.7632C453.895 92.3698 451.858 94.8598 450.025 97.2332C448.191 99.5998 445.918 102.29 443.205 105.303C440.485 108.316 438.168 110.926 436.255 113.133C434.348 115.333 431.795 118.283 428.595 121.983C425.395 125.683 422.831 128.71 420.905 131.063C418.985 133.41 417.811 134.77 417.385 135.143C416.958 135.51 416.388 136.266 415.675 137.413C414.968 138.553 414.095 139.553 413.055 140.413C412.021 141.266 410.875 141.933 409.615 142.413C408.361 142.893 407.061 143.16 405.715 143.213C404.375 143.273 403.058 143.113 401.765 142.733C400.478 142.353 399.285 141.78 398.185 141.013C397.078 140.24 396.125 139.313 395.325 138.233C394.531 137.146 393.928 135.963 393.515 134.683C393.101 133.403 392.905 132.09 392.925 130.743C392.945 129.396 393.178 128.09 393.625 126.823C394.071 125.556 394.708 124.393 395.535 123.333C396.368 122.273 397.345 121.373 398.465 120.633C399.591 119.893 400.801 119.353 402.095 119.013C403.395 118.673 404.718 118.546 406.065 118.633C407.405 118.726 408.695 119.033 409.935 119.553C411.181 120.066 412.311 120.766 413.325 121.653C414.338 122.533 415.181 123.556 415.855 124.723C416.535 125.883 417.008 127.123 417.275 128.443C417.548 129.763 417.601 131.09 417.435 132.423C417.275 133.756 416.901 135.03 416.315 136.243C415.735 137.456 414.975 138.546 414.035 139.513C413.095 140.473 412.028 141.26 410.835 141.873C409.635 142.486 408.371 142.893 407.045 143.093C405.711 143.293 404.381 143.273 403.055 143.033C401.741 142.8 400.495 142.36 399.315 141.713C398.135 141.066 397.088 140.246 396.175 139.253C395.261 138.266 394.531 137.156 393.985 135.923C393.438 134.696 393.101 133.413 392.975 132.073C392.848 130.733 392.938 129.41 393.245 128.103C393.558 126.79 393.715 126.136 393.715 126.143C393.708 126.143 395.078 124.493 397.825 121.193C400.558 117.9 403.341 114.683 406.175 111.543C409.008 108.403 412.241 104.806 415.875 100.753C419.501 96.6998 422.431 93.2698 424.665 90.4632C426.898 87.6565 428.991 84.9265 430.945 82.2732C432.898 79.6198 434.918 76.9398 437.005 74.2332C439.098 71.5198 441.161 68.8332 443.195 66.1732C445.221 63.5132 447.828 60.2732 451.015 56.4532C454.201 52.6398 457.055 49.2798 459.575 46.3732C462.088 43.4665 465.135 40.8598 468.715 38.5532C472.288 36.2465 474.571 35.1132 475.565 35.1532C476.558 35.1932 477.531 35.3532 478.485 35.6332C479.445 35.9132 480.355 36.3032 481.215 36.8032C482.075 37.3032 482.861 37.8965 483.575 38.5832C484.295 39.2765 484.918 40.0432 485.445 40.8832C485.978 41.7232 486.401 42.6165 486.715 43.5632C487.028 44.5098 487.221 45.4765 487.295 46.4632C487.375 47.4565 487.335 48.4465 487.175 49.4332C487.015 50.4132 486.738 51.3565 486.345 52.2632C485.951 53.1765 485.455 54.0298 484.855 54.8232C484.255 55.6232 483.571 56.3365 482.805 56.9632C482.031 57.5898 481.195 58.1165 480.295 58.5432C479.395 58.9632 478.455 59.2732 477.475 59.4732C476.501 59.6665 476.075 59.7732 476.195 59.7932C476.308 59.8132 474.598 59.9898 471.065 60.3232C467.538 60.6565 463.631 60.8898 459.345 61.0232C455.058 61.1565 450.171 61.2632 444.685 61.3432C439.198 61.4298 435.005 61.4665 432.105 61.4532C429.205 61.4398 425.028 61.4632 419.575 61.5232C414.121 61.5898 409.931 61.7465 407.005 61.9932C404.078 62.2398 402.195 62.3565 401.355 62.3432C400.501 62.3298 399.665 62.2132 398.845 61.9932C398.025 61.7798 397.241 61.4698 396.495 61.0632C395.748 60.6565 395.061 60.1665 394.435 59.5932C393.808 59.0198 393.258 58.3798 392.785 57.6732C392.311 56.9665 391.931 56.2132 391.645 55.4132C391.358 54.6132 391.171 53.7898 391.085 52.9432C390.991 52.0965 391.005 51.2565 391.125 50.4232C391.238 49.5832 391.451 48.7665 391.765 47.9732C392.078 47.1865 392.481 46.4465 392.975 45.7532C393.475 45.0665 394.045 44.4465 394.685 43.8932C395.331 43.3398 396.035 42.8698 396.795 42.4832C397.555 42.1032 398.348 41.8165 399.175 41.6232C400.001 41.4365 400.415 41.3432 400.415 41.3432Z" fill="#F0F0F0"/>
<path d="M511.354 62.313C511.354 62.313 511.114 64.493 510.634 68.853C510.148 73.2197 509.738 77.293 509.404 81.073C509.064 84.853 508.811 88.6863 508.644 92.573C508.471 96.453 508.374 100.18 508.354 103.753C508.328 107.32 508.318 110.903 508.324 114.503C508.324 118.11 508.371 121.343 508.464 124.203C508.551 127.07 508.701 130.67 508.914 135.003C509.128 139.336 509.328 143.3 509.514 146.893C509.708 150.48 509.704 152.88 509.504 154.093C509.304 155.313 508.914 156.466 508.334 157.553C507.761 158.646 507.024 159.616 506.124 160.463C505.231 161.31 504.224 161.993 503.104 162.513C501.984 163.026 500.818 163.35 499.604 163.483C498.378 163.616 497.161 163.55 495.954 163.283C494.748 163.023 493.618 162.573 492.564 161.933C491.504 161.3 490.578 160.513 489.784 159.573C488.984 158.633 488.358 157.59 487.904 156.443C487.444 155.296 487.181 154.106 487.114 152.873C487.048 151.646 487.181 150.44 487.514 149.253C487.841 148.06 488.351 146.953 489.044 145.933C489.738 144.913 490.574 144.03 491.554 143.283C492.541 142.536 493.618 141.966 494.784 141.573C495.951 141.18 497.151 140.983 498.384 140.983C499.618 140.99 500.814 141.19 501.974 141.583C503.148 141.976 504.224 142.546 505.204 143.293C506.184 144.04 507.021 144.923 507.714 145.943C508.401 146.963 508.911 148.066 509.244 149.253C509.571 150.44 509.701 151.65 509.634 152.883C509.568 154.116 509.308 155.306 508.854 156.453C508.394 157.593 507.764 158.633 506.964 159.573C506.171 160.513 505.244 161.3 504.184 161.933C503.124 162.573 501.994 163.023 500.794 163.283C499.594 163.55 498.381 163.616 497.154 163.483C495.928 163.35 494.758 163.023 493.644 162.503C492.524 161.99 491.518 161.306 490.624 160.453C489.724 159.606 488.988 158.64 488.414 157.553C487.834 156.46 487.444 155.306 487.244 154.093C487.051 152.873 486.954 152.263 486.954 152.263C486.954 152.263 487.051 150.466 487.244 146.873C487.438 143.286 487.648 139.313 487.874 134.953C488.101 130.6 488.268 126.98 488.374 124.093C488.488 121.206 488.574 117.93 488.634 114.263C488.688 110.596 488.768 106.916 488.874 103.223C488.974 99.5297 489.091 95.5563 489.224 91.303C489.351 87.0497 489.598 83.053 489.964 79.313C490.331 75.5797 490.654 71.523 490.934 67.143C491.208 62.763 491.428 60.1797 491.594 59.393C491.761 58.5997 492.021 57.8397 492.374 57.113C492.721 56.3863 493.151 55.713 493.664 55.093C494.184 54.4663 494.768 53.913 495.414 53.433C496.061 52.953 496.758 52.5563 497.504 52.243C498.251 51.9363 499.021 51.7197 499.814 51.593C500.608 51.4663 501.408 51.4397 502.214 51.513C503.014 51.5797 503.798 51.743 504.564 52.003C505.331 52.263 506.054 52.613 506.734 53.053C507.414 53.4863 508.031 53.9963 508.584 54.583C509.138 55.1697 509.614 55.813 510.014 56.513C510.414 57.213 510.724 57.953 510.944 58.733C511.164 59.513 511.288 60.3063 511.314 61.113C511.341 61.913 511.354 62.313 511.354 62.313Z" fill="#F0F0F0"/>
<path d="M515.873 153.51C515.873 153.51 516.309 151.936 517.183 148.79C518.056 145.643 518.966 141.736 519.913 137.07C520.866 132.41 521.613 127.963 522.153 123.73C522.686 119.496 523.279 114.76 523.933 109.52C524.579 104.286 525.053 99.5831 525.353 95.4097C525.659 91.2297 525.903 87.6397 526.083 84.6397C526.263 81.6397 526.819 77.5664 527.753 72.4197C528.693 67.2731 529.719 63.2531 530.833 60.3597C531.953 57.4664 532.436 56.1064 532.283 56.2797C532.136 56.4531 532.279 56.1697 532.713 55.4297C533.146 54.6964 533.659 54.0264 534.253 53.4197C534.846 52.8064 535.503 52.2731 536.223 51.8197C536.943 51.3731 537.709 51.0164 538.523 50.7497C539.329 50.4831 540.159 50.3197 541.013 50.2597C541.859 50.1931 542.703 50.2297 543.543 50.3697C544.383 50.5164 545.193 50.7564 545.973 51.0897C546.753 51.4297 547.483 51.8597 548.163 52.3797C548.843 52.8931 549.449 53.4797 549.983 54.1397C550.516 54.8064 550.963 55.5264 551.323 56.2997C551.683 57.0664 551.946 57.8697 552.113 58.7097C552.279 59.5431 552.343 60.3864 552.303 61.2397C552.263 62.0864 552.123 62.9197 551.883 63.7397C551.643 64.5531 552.686 67.0997 555.013 71.3797C557.339 75.6531 558.936 79.2531 559.803 82.1797C560.669 85.1064 562.266 89.0431 564.593 93.9897C566.913 98.9431 568.699 102.92 569.953 105.92C571.206 108.92 572.779 112.14 574.673 115.58C576.559 119.02 578.306 121.993 579.913 124.5C581.519 127.013 580.693 128.146 577.433 127.9C574.166 127.653 570.729 128.63 567.123 130.83C563.516 133.036 562.143 131.57 563.003 126.43C563.869 121.296 564.796 116.083 565.783 110.79C566.769 105.496 567.793 100.113 568.853 94.6397C569.913 89.1664 570.773 84.9997 571.433 82.1397C572.086 79.2864 572.533 76.0597 572.773 72.4597C573.013 68.8597 573.309 65.5264 573.663 62.4597C574.016 59.3931 574.363 57.1864 574.703 55.8397C575.043 54.4931 575.593 53.2364 576.353 52.0697C577.106 50.8964 578.026 49.8764 579.113 49.0097C580.199 48.1431 581.396 47.4731 582.703 46.9997C584.009 46.5264 585.356 46.2731 586.743 46.2397C588.136 46.2131 589.496 46.4064 590.823 46.8197C592.149 47.2331 593.376 47.8464 594.503 48.6597C595.629 49.4797 596.596 50.4564 597.403 51.5897C598.209 52.7231 598.813 53.9531 599.213 55.2797C599.613 56.6131 599.793 57.9731 599.753 59.3597C599.706 60.7531 599.443 62.0997 598.963 63.3997C598.476 64.7064 597.793 65.8997 596.913 66.9797C596.039 68.0597 595.016 68.9697 593.843 69.7097C592.669 70.4564 591.406 70.9931 590.053 71.3197C588.699 71.6464 587.333 71.7531 585.953 71.6397C584.566 71.5197 583.236 71.1831 581.963 70.6297C580.683 70.0697 579.529 69.3231 578.503 68.3897C577.469 67.4564 576.613 66.3831 575.933 65.1697C575.253 63.9564 574.786 62.6664 574.533 61.2997C574.279 59.9331 574.249 58.5631 574.443 57.1897C574.636 55.8097 575.043 54.4997 575.663 53.2597C576.289 52.0131 577.096 50.9031 578.083 49.9297C579.069 48.9497 580.186 48.1531 581.433 47.5397C582.686 46.9264 583.999 46.5297 585.373 46.3497C586.753 46.1697 588.126 46.2131 589.493 46.4797C590.853 46.7464 592.139 47.2264 593.353 47.9197C594.559 48.6064 595.623 49.4697 596.543 50.5097C597.469 51.5497 598.203 52.7097 598.743 53.9897C599.289 55.2697 599.616 56.6031 599.723 57.9897C599.829 59.3764 599.883 60.0697 599.883 60.0697C599.883 60.0631 599.656 61.4497 599.203 64.2297C598.743 67.0164 598.256 70.8631 597.743 75.7697C597.223 80.6764 596.419 85.7031 595.333 90.8497C594.239 95.9964 593.246 101.403 592.353 107.07C591.466 112.73 590.639 117.926 589.873 122.66C589.113 127.4 588.306 131.586 587.453 135.22C586.599 138.846 584.219 141.99 580.313 144.65C576.399 147.31 572.126 147.146 567.493 144.16C562.859 141.166 559.829 138.31 558.403 135.59C556.976 132.863 555.323 129.486 553.443 125.46C551.569 121.426 549.469 116.7 547.143 111.28C544.823 105.86 542.896 101.476 541.363 98.1297C539.823 94.7831 538.633 91.6697 537.793 88.7897C536.953 85.9097 535.949 82.2897 534.783 77.9297C533.616 73.5697 532.873 68.9131 532.553 63.9597C532.226 59.0131 532.279 56.1731 532.713 55.4397C533.139 54.6997 533.649 54.0264 534.243 53.4197C534.843 52.8064 535.503 52.2731 536.223 51.8197C536.943 51.3731 537.709 51.0164 538.523 50.7497C539.329 50.4831 540.159 50.3197 541.013 50.2597C541.859 50.1931 542.703 50.2297 543.543 50.3697C544.383 50.5164 545.193 50.7564 545.973 51.0897C546.753 51.4297 547.483 51.8564 548.163 52.3697C548.843 52.8897 549.449 53.4797 549.983 54.1397C550.516 54.8064 550.963 55.5231 551.323 56.2897C551.683 57.0631 551.946 57.8664 552.113 58.6997C552.279 59.5397 552.343 60.3831 552.303 61.2297C552.263 62.0831 552.123 62.9197 551.883 63.7397C551.643 64.5531 550.936 65.8497 549.763 67.6297C548.596 69.4097 547.336 72.2931 545.983 76.2797C544.636 80.2731 543.703 83.6631 543.183 86.4497C542.663 89.2364 542.186 92.6764 541.753 96.7697C541.319 100.87 541.009 105.69 540.823 111.23C540.643 116.77 540.293 121.746 539.773 126.16C539.253 130.58 538.673 135.62 538.033 141.28C537.399 146.933 536.559 151.31 535.513 154.41C534.459 157.51 533.779 159.406 533.473 160.1C533.159 160.793 532.769 161.44 532.303 162.04C531.836 162.64 531.306 163.176 530.713 163.65C530.119 164.123 529.476 164.516 528.783 164.83C528.089 165.143 527.369 165.37 526.623 165.51C525.876 165.65 525.126 165.696 524.373 165.65C523.613 165.61 522.869 165.476 522.143 165.25C521.423 165.03 520.736 164.723 520.083 164.33C519.429 163.943 518.833 163.48 518.293 162.94C517.753 162.406 517.286 161.816 516.893 161.17C516.499 160.516 516.186 159.83 515.953 159.11C515.726 158.383 515.589 157.64 515.543 156.88C515.496 156.12 515.539 155.366 515.673 154.62C515.806 153.88 515.873 153.51 515.873 153.51Z" fill="#F0F0F0"/>
<path d="M504.628 23.5716C504.628 23.5716 507.378 22.9832 512.877 21.8065C518.394 20.6298 523.368 19.5302 527.798 18.5075C532.219 17.4848 538.433 16.1243 546.439 14.4261C554.437 12.7346 560.848 11.2707 565.673 10.0344C570.499 8.80479 573.419 8.00968 574.434 7.64906C575.458 7.28844 576.761 6.98098 578.343 6.72668C579.925 6.46572 581.52 6.40141 583.128 6.53377C584.737 6.66612 586.279 6.98519 587.753 7.49095C589.218 7.99673 590.54 8.66593 591.717 9.49854C592.886 10.3245 593.848 11.2672 594.604 12.3268C595.368 13.393 595.877 14.5193 596.129 15.7059C596.391 16.8924 596.387 18.079 596.118 19.2659C595.858 20.446 595.346 21.5663 594.583 22.6268C593.82 23.6873 592.85 24.6312 591.673 25.4586C590.496 26.286 589.171 26.9501 587.698 27.451C586.224 27.9519 584.683 28.2695 583.074 28.4038C581.466 28.5315 579.871 28.4658 578.289 28.2067C576.707 27.941 575.224 27.4986 573.839 26.8794C572.455 26.2603 571.237 25.491 570.185 24.5717C569.142 23.6523 568.319 22.6361 567.716 21.5232C567.122 20.4035 566.784 19.2437 566.703 18.0438C566.612 16.8438 566.787 15.6671 567.226 14.5135C567.666 13.3532 568.339 12.2761 569.246 11.2822C570.162 10.2883 571.263 9.42766 572.548 8.70021C573.841 7.97942 575.256 7.42523 576.793 7.03763C578.329 6.65669 579.907 6.46906 581.524 6.47475C583.151 6.47376 584.728 6.66613 586.256 7.05187C587.793 7.4376 589.205 7.9934 590.49 8.71929C591.785 9.45183 592.882 10.3145 593.781 11.3073C594.689 12.3067 595.359 13.3863 595.792 14.5461C596.224 15.6991 596.395 16.8757 596.306 18.0757C596.208 19.2758 595.858 20.436 595.257 21.5564C594.655 22.6701 593.829 23.6839 592.778 24.5979C591.727 25.5119 590.505 26.2793 589.113 26.9001C587.729 27.5143 587.037 27.8214 587.037 27.8214C587.037 27.8214 586.026 28.0887 584.005 28.6232C581.983 29.1578 578.38 29.86 573.195 30.7298C568.019 31.5996 561.522 32.7169 553.704 34.0817C545.895 35.4531 539.816 36.5801 535.467 37.4628C531.126 38.3454 526.229 39.4517 520.775 40.7817C515.321 42.1184 512.059 42.857 510.989 42.9977C509.92 43.145 508.846 43.1923 507.768 43.1397C506.68 43.087 505.615 42.941 504.572 42.7016C503.539 42.4556 502.554 42.1228 501.62 41.7034C500.685 41.284 499.835 40.7878 499.071 40.2149C498.307 39.6421 497.641 39.0091 497.075 38.3162C496.517 37.6232 496.076 36.8901 495.752 36.117C495.437 35.3438 495.248 34.5539 495.184 33.7473C495.121 32.9473 495.188 32.1506 495.385 31.3572C495.582 30.5637 495.91 29.7969 496.368 29.0566C496.817 28.323 497.378 27.6393 498.052 27.0056C498.725 26.3718 499.493 25.8047 500.356 25.3042C501.209 24.8103 502.135 24.3997 503.132 24.0725C504.129 23.7385 504.628 23.5716 504.628 23.5716Z" fill="#F0F0F0"/>
<path d="M223.436 153.236C223.436 153.236 223.773 151.546 224.446 148.166C225.126 144.786 225.923 140.506 226.836 135.326C227.75 130.146 228.436 125.262 228.896 120.676C229.35 116.082 229.873 110.939 230.466 105.246C231.06 99.5523 231.473 94.4656 231.706 89.9856C231.933 85.5056 232.086 81.6689 232.166 78.4756C232.246 75.2823 232.413 72.2289 232.666 69.3156C232.92 66.4023 233.35 62.9489 233.956 58.9556C234.556 54.9689 235.06 52.3589 235.466 51.1256C235.866 49.8989 236.24 48.9123 236.586 48.1656C236.926 47.4189 237.353 46.7223 237.866 46.0756C238.38 45.4356 238.96 44.8656 239.606 44.3656C240.26 43.8589 240.96 43.4423 241.706 43.1156C242.46 42.7823 243.24 42.5456 244.046 42.4056C244.86 42.2656 245.676 42.2223 246.496 42.2756C247.31 42.3289 248.11 42.4823 248.896 42.7356C249.676 42.9823 250.416 43.3223 251.116 43.7556C251.816 44.1823 252.453 44.6889 253.026 45.2756C253.606 45.8623 254.106 46.5089 254.526 47.2156C254.946 47.9223 255.273 48.6689 255.506 49.4556C255.746 50.2356 255.886 51.0356 255.926 51.8556C255.973 52.6756 255.92 53.4889 255.766 54.2956C255.613 55.1023 256.193 57.0789 257.506 60.2256C258.82 63.3723 260.123 67.6756 261.416 73.1356C262.703 78.5956 264.293 84.0556 266.186 89.5156C268.086 94.9756 269.53 99.3123 270.516 102.526C271.51 105.746 272.79 109.246 274.356 113.026C275.923 116.799 277.37 120.049 278.696 122.776C280.016 125.502 278.073 126.716 272.866 126.416C267.66 126.122 264.066 127.066 262.086 129.246C260.106 131.419 259.456 129.689 260.136 124.056C260.816 118.416 261.563 112.759 262.376 107.086C263.19 101.419 263.783 97.1156 264.156 94.1756C264.53 91.2423 264.96 88.3156 265.446 85.3956C265.94 82.4689 266.46 79.4623 267.006 76.3756C267.546 73.2823 267.916 69.6856 268.116 65.5856C268.31 61.4856 268.536 57.8089 268.796 54.5556C269.056 51.3023 269.336 49.0089 269.636 47.6756C269.943 46.3489 270.453 45.1056 271.166 43.9456C271.88 42.7856 272.76 41.7689 273.806 40.8956C274.853 40.0223 276.013 39.3389 277.286 38.8456C278.553 38.3523 279.87 38.0756 281.236 38.0156C282.596 37.9556 283.93 38.1123 285.236 38.4856C286.55 38.8656 287.766 39.4423 288.886 40.2156C290.006 40.9889 290.973 41.9223 291.786 43.0156C292.606 44.1089 293.226 45.3023 293.646 46.5956C294.066 47.8956 294.273 49.2256 294.266 50.5856C294.253 51.9456 294.023 53.2723 293.576 54.5656C293.13 55.8523 292.486 57.0323 291.646 58.1056C290.813 59.1856 289.83 60.1023 288.696 60.8556C287.563 61.6089 286.336 62.1623 285.016 62.5156C283.703 62.8689 282.366 63.0023 281.006 62.9156C279.646 62.8289 278.336 62.5289 277.076 62.0156C275.81 61.4956 274.663 60.7889 273.636 59.8956C272.603 59.0089 271.74 57.9756 271.046 56.7956C270.36 55.6223 269.876 54.3689 269.596 53.0356C269.31 51.7023 269.246 50.3589 269.406 49.0056C269.566 47.6523 269.94 46.3589 270.526 45.1256C271.113 43.8989 271.88 42.7956 272.826 41.8156C273.766 40.8356 274.843 40.0323 276.056 39.4056C277.263 38.7723 278.543 38.3523 279.896 38.1456C281.243 37.9389 282.586 37.9523 283.926 38.1856C285.266 38.4189 286.536 38.8589 287.736 39.5056C288.936 40.1589 290 40.9856 290.926 41.9856C291.853 42.9789 292.596 44.0989 293.156 45.3456C293.716 46.5856 294.066 47.8823 294.206 49.2356C294.34 50.5956 294.406 51.2756 294.406 51.2756C294.406 51.2689 294.213 52.7889 293.826 55.8356C293.44 58.8756 293.043 62.9256 292.636 67.9856C292.236 73.0456 291.606 78.3923 290.746 84.0256C289.893 89.6589 289.316 94.1023 289.016 97.3556C288.716 100.609 288.383 103.652 288.016 106.486C287.65 109.319 287.173 113.319 286.586 118.486C285.993 123.652 285.353 128.086 284.666 131.786C283.98 135.492 282.526 138.679 280.306 141.346C278.086 144.019 273.83 143.729 267.536 140.476C261.236 137.229 257.543 134.152 256.456 131.246C255.363 128.332 254.1 124.742 252.666 120.476C251.24 116.216 250.026 112.512 249.026 109.366C248.02 106.219 247.09 103.279 246.236 100.546C245.39 97.8189 244.38 94.7323 243.206 91.2856C242.033 87.8323 241.11 84.5556 240.436 81.4556C239.763 78.3489 238.99 74.4689 238.116 69.8156C237.25 65.1689 236.693 60.5856 236.446 56.0656C236.193 51.5456 236.24 48.9123 236.586 48.1656C236.926 47.4189 237.353 46.7223 237.866 46.0756C238.373 45.4356 238.953 44.8656 239.606 44.3656C240.26 43.8656 240.96 43.4489 241.706 43.1156C242.46 42.7823 243.24 42.5456 244.046 42.4056C244.86 42.2656 245.673 42.2223 246.486 42.2756C247.306 42.3289 248.11 42.4823 248.896 42.7356C249.676 42.9823 250.416 43.3223 251.116 43.7556C251.816 44.1823 252.453 44.6889 253.026 45.2756C253.606 45.8623 254.106 46.5089 254.526 47.2156C254.94 47.9223 255.266 48.6656 255.506 49.4456C255.746 50.2323 255.886 51.0356 255.926 51.8556C255.973 52.6756 255.92 53.4889 255.766 54.2956C255.613 55.1023 255.013 56.5323 253.966 58.5856C252.926 60.6389 251.8 63.9156 250.586 68.4156C249.373 72.9089 248.53 76.6756 248.056 79.7156C247.576 82.7556 247.16 86.4889 246.806 90.9156C246.446 95.3423 246.23 100.509 246.156 106.416C246.09 112.322 245.863 117.639 245.476 122.366C245.09 127.086 244.723 132.416 244.376 138.356C244.03 144.296 243.43 148.939 242.576 152.286C241.723 155.626 241.173 157.642 240.926 158.336C240.673 159.029 240.343 159.682 239.936 160.296C239.53 160.909 239.056 161.462 238.516 161.956C237.976 162.456 237.383 162.882 236.736 163.236C236.09 163.589 235.41 163.862 234.696 164.056C233.983 164.242 233.26 164.342 232.526 164.356C231.8 164.369 231.076 164.292 230.356 164.126C229.636 163.966 228.946 163.719 228.286 163.386C227.633 163.059 227.026 162.656 226.466 162.176C225.906 161.696 225.41 161.159 224.976 160.566C224.55 159.966 224.2 159.322 223.926 158.636C223.653 157.956 223.466 157.249 223.366 156.516C223.26 155.789 223.246 155.062 223.326 154.336C223.4 153.602 223.436 153.236 223.436 153.236Z" fill="#F0F0F0"/>
<path d="M71.7372 54.651C71.7372 54.651 70.5572 56.061 68.1972 58.881C65.8372 61.7076 63.5972 64.3543 61.4772 66.821C59.3572 69.2876 57.1672 71.6843 54.9072 74.011C52.6472 76.3376 49.7405 79.371 46.1872 83.111C42.6339 86.851 39.3105 90.1176 36.2172 92.911C33.1305 95.711 30.4205 98.2443 28.0872 100.511C25.7472 102.778 24.0172 101.494 22.8972 96.661C21.7705 91.8343 22.7439 88.741 25.8172 87.381C28.8905 86.021 32.9839 85.3576 38.0972 85.391C43.2172 85.4176 48.6039 85.4643 54.2572 85.531C59.9039 85.6043 64.9705 85.621 69.4572 85.581C73.9439 85.5476 77.1872 85.4876 79.1872 85.401C81.1939 85.3143 82.7139 85.3343 83.7472 85.461C84.7805 85.581 85.7872 85.8276 86.7672 86.201C87.7405 86.5676 88.6572 87.0476 89.5172 87.641C90.3772 88.2343 91.1505 88.921 91.8372 89.701C92.5305 90.4876 93.1205 91.341 93.6072 92.261C94.0939 93.1876 94.4605 94.1576 94.7072 95.171C94.9539 96.1843 95.0772 97.211 95.0772 98.251C95.0772 99.2976 94.9539 100.324 94.7072 101.331C94.4539 102.344 94.0872 103.314 93.6072 104.241C93.1205 105.168 92.5305 106.021 91.8372 106.801C91.1439 107.581 90.3705 108.268 89.5172 108.861C88.6572 109.454 87.7405 109.934 86.7672 110.301C85.7872 110.674 84.7805 110.921 83.7472 111.041C82.7072 111.168 83.6539 110.684 86.5872 109.591C89.5205 108.498 89.8039 108.858 87.4372 110.671C85.0705 112.478 82.7005 114.318 80.3272 116.191C77.9472 118.064 75.4239 120.028 72.7572 122.081C70.0906 124.134 67.6105 126.111 65.3172 128.011C63.0239 129.911 60.3805 131.874 57.3872 133.901C54.3872 135.921 50.8605 138.394 46.8072 141.321C42.7539 144.248 39.2705 146.968 36.3572 149.481C33.4439 151.994 30.6739 154.468 28.0472 156.901C25.4205 159.334 22.8305 161.604 20.2772 163.711C17.7239 165.824 15.7772 167.104 14.4372 167.551C13.0972 167.998 11.7205 168.218 10.3072 168.211C8.89388 168.204 7.51722 167.974 6.17722 167.521C4.84388 167.061 3.61388 166.401 2.48721 165.541C1.36721 164.681 0.413879 163.664 -0.372787 162.491C-1.16612 161.324 -1.74945 160.058 -2.12279 158.691C-2.49612 157.331 -2.63945 155.944 -2.55278 154.531C-2.47278 153.118 -2.16945 151.758 -1.64278 150.451C-1.11612 149.138 -0.392786 147.944 0.527214 146.871C1.44721 145.798 2.51388 144.898 3.72721 144.171C4.94055 143.444 6.23721 142.934 7.61721 142.641C9.00388 142.341 10.3972 142.268 11.7972 142.421C13.2039 142.581 14.5472 142.961 15.8272 143.561C17.1072 144.161 18.2605 144.948 19.2872 145.921C20.3072 146.894 21.1472 148.008 21.8072 149.261C22.4605 150.514 22.9005 151.838 23.1272 153.231C23.3472 154.624 23.3405 156.021 23.1072 157.421C22.8739 158.814 22.4239 160.134 21.7572 161.381C21.0905 162.628 20.2439 163.734 19.2172 164.701C18.1839 165.668 17.0239 166.444 15.7372 167.031C14.4572 167.624 13.1139 167.994 11.7072 168.141C10.3005 168.288 8.90721 168.208 7.52721 167.901C6.14721 167.588 4.85388 167.064 3.64721 166.331C2.44055 165.598 1.38055 164.691 0.467213 163.611C-0.446121 162.531 -1.15945 161.334 -1.67279 160.021C-2.19279 158.701 -2.48945 157.338 -2.56279 155.931C-2.63612 154.518 -2.47945 153.131 -2.09278 151.771C-1.71278 150.411 -1.12278 149.148 -0.322784 147.981C0.477216 146.814 1.44055 145.804 2.56721 144.951C3.69388 144.098 4.25721 143.671 4.25721 143.671C4.25721 143.678 4.21721 143.711 4.13721 143.771C4.05055 143.831 5.42388 142.614 8.25721 140.121C11.0839 137.634 13.9072 135.308 16.7272 133.141C19.5472 130.974 22.9939 128.431 27.0672 125.511C31.1405 122.598 35.2605 119.608 39.4272 116.541C43.5872 113.481 46.8639 110.888 49.2572 108.761C51.6505 106.634 54.0605 104.531 56.4872 102.451C58.9072 100.371 62.0172 97.911 65.8172 95.071C69.6239 92.231 73.3039 89.8876 76.8572 88.041C80.4105 86.1943 82.7072 85.3343 83.7472 85.461C84.7805 85.581 85.7872 85.8276 86.7672 86.201C87.7405 86.5676 88.6572 87.0476 89.5172 87.641C90.3705 88.2343 91.1439 88.921 91.8372 89.701C92.5305 90.481 93.1205 91.3343 93.6072 92.261C94.0872 93.1876 94.4539 94.1543 94.7072 95.161C94.9539 96.1743 95.0772 97.2043 95.0772 98.251C95.0772 99.291 94.9539 100.318 94.7072 101.331C94.4605 102.344 94.0939 103.314 93.6072 104.241C93.1205 105.161 92.5305 106.014 91.8372 106.801C91.1505 107.581 90.3772 108.268 89.5172 108.861C88.6572 109.454 87.7405 109.934 86.7672 110.301C85.7872 110.674 84.7805 110.921 83.7472 111.041C82.7139 111.168 81.1939 111.188 79.1872 111.101C77.1872 111.014 73.9439 110.951 69.4572 110.911C64.9705 110.878 59.9005 110.894 54.2472 110.961C48.5939 111.028 43.2005 111.074 38.0672 111.101C32.9339 111.121 28.2039 111.104 23.8772 111.051C19.5439 110.991 15.8139 110.208 12.6872 108.701C9.56055 107.188 7.30388 104.581 5.91721 100.881C4.52388 97.1743 5.02388 93.4043 7.41721 89.571C9.81055 85.7376 12.6205 82.6376 15.8472 80.271C19.0739 77.9043 22.4505 75.1943 25.9772 72.141C29.4972 69.0876 33.1205 65.7043 36.8472 61.991C40.5739 58.2776 43.4539 55.3143 45.4872 53.101C47.5205 50.8876 49.7039 48.361 52.0372 45.521C54.3639 42.6743 55.8339 40.961 56.4472 40.381C57.0605 39.801 57.7339 39.301 58.4672 38.881C59.2005 38.461 59.9705 38.1376 60.7772 37.911C61.5905 37.6776 62.4205 37.5476 63.2672 37.521C64.1139 37.4943 64.9505 37.5676 65.7772 37.741C66.6039 37.9143 67.3972 38.1843 68.1572 38.551C68.9239 38.9176 69.6305 39.371 70.2772 39.911C70.9305 40.451 71.5072 41.0576 72.0072 41.731C72.5139 42.411 72.9306 43.141 73.2572 43.921C73.5839 44.701 73.8139 45.5076 73.9472 46.341C74.0739 47.181 74.1005 48.0176 74.0272 48.851C73.9539 49.691 73.7806 50.511 73.5072 51.311C73.2339 52.111 72.8705 52.8676 72.4172 53.581C71.9639 54.2943 71.7372 54.651 71.7372 54.651Z" fill="#F0F0F0"/>
<path d="M66.181 57.6522C66.181 57.6522 65.4958 58.479 64.1254 60.1326C62.7551 61.7862 60.6531 64.352 57.8196 67.83C54.9864 71.3146 52.6592 74.3071 50.838 76.8075C49.0171 79.3145 47.0416 81.8715 44.9114 84.4786C42.7748 87.0926 40.7103 89.5199 38.7178 91.7607C36.7257 94.0082 35.7351 95.1818 35.746 95.2814C35.7639 95.3874 35.4059 96.0633 34.672 97.3093C33.9314 98.5555 33.0141 99.6492 31.9201 100.59C30.8197 101.538 29.6006 102.285 28.2627 102.829C26.9181 103.374 25.5237 103.691 24.0796 103.779C22.6354 103.868 21.2146 103.725 19.8173 103.352C18.4197 102.971 17.1165 102.38 15.9077 101.578C14.7055 100.775 13.6627 99.7988 12.7793 98.6489C11.8894 97.506 11.2083 96.2507 10.736 94.8831C10.2636 93.5154 10.0229 92.1044 10.0138 90.6501C10.0051 89.2025 10.2282 87.7917 10.683 86.4176C11.1312 85.0438 11.7909 83.7776 12.662 82.6192C13.5265 81.4611 14.555 80.4695 15.7473 79.6443C16.94 78.8257 18.2351 78.2163 19.6325 77.816C21.0236 77.4227 22.4412 77.2585 23.8853 77.3233C25.3294 77.3881 26.7268 77.6851 28.0774 78.2144C29.428 78.7437 30.657 79.4717 31.7644 80.3984C32.8785 81.3248 33.8123 82.4058 34.566 83.6413C35.3196 84.8768 35.8602 86.2015 36.1878 87.6154C36.5087 89.0296 36.5933 90.4573 36.4416 91.8984C36.2966 93.3393 35.9253 94.7165 35.3277 96.03C34.7304 97.3501 33.9374 98.5419 32.9488 99.6053C31.9598 100.662 30.8295 101.535 29.5579 102.223C28.2793 102.905 26.928 103.37 25.504 103.618C24.073 103.86 22.6422 103.871 21.2115 103.652C19.7805 103.427 18.4233 102.978 17.14 102.305C15.857 101.64 14.7126 100.785 13.7069 99.7402C12.7078 98.6954 11.9 97.5189 11.2834 96.2108C10.6664 94.8961 10.2738 93.5216 10.1055 92.0875C9.93696 90.6468 10.0025 89.2193 10.3022 87.8052C10.6082 86.3841 10.7612 85.6735 10.7612 85.6735C10.7548 85.6805 11.2069 85.174 12.1173 84.154C13.0214 83.141 14.7979 80.9995 17.4468 77.7296C20.0958 74.4598 22.7574 71.4863 25.4318 68.8092C28.1064 66.1387 30.6011 63.5494 32.9157 61.0412C35.2306 58.5397 38.0026 55.7283 41.2318 52.607C44.4543 49.486 46.8306 47.172 48.3608 45.665C49.8909 44.1581 50.9777 43.1272 51.6212 42.5724C52.265 42.0243 52.9658 41.5605 53.7235 41.181C54.4813 40.8015 55.2732 40.5173 56.0991 40.3284C56.9251 40.1395 57.7588 40.0504 58.6 40.061C59.4482 40.078 60.2806 40.1957 61.0974 40.4143C61.9142 40.6328 62.6949 40.9429 63.4395 41.3447C64.1843 41.7532 64.8693 42.2443 65.4945 42.818C66.1197 43.3917 66.6676 44.0321 67.1384 44.7393C67.6025 45.4467 67.9783 46.198 68.266 46.993C68.5537 47.7881 68.7423 48.6074 68.8319 49.451C68.9145 50.2882 68.8971 51.1264 68.7796 51.9656C68.6622 52.8047 68.4468 53.618 68.1336 54.4055C67.8204 55.193 67.4184 55.9309 66.9274 56.6192C66.4298 57.3079 66.181 57.6522 66.181 57.6522Z" fill="#F0F0F0"/>
<path d="M311.118 151.503C311.118 151.503 310.685 151.846 309.818 152.533C308.945 153.22 308.811 153.493 309.418 153.353C310.025 153.22 310.111 153.526 309.678 154.273C309.245 155.02 308.731 155.703 308.138 156.323C307.538 156.943 306.875 157.483 306.148 157.943C305.421 158.403 304.651 158.77 303.838 159.043C303.018 159.31 302.178 159.48 301.318 159.553C300.458 159.62 299.605 159.583 298.758 159.443C297.905 159.303 297.085 159.063 296.298 158.723C295.505 158.39 294.765 157.963 294.078 157.443C293.385 156.923 292.768 156.33 292.228 155.663C291.681 154.996 291.225 154.273 290.858 153.493C290.485 152.713 290.215 151.903 290.048 151.063C289.875 150.216 289.805 149.363 289.838 148.503C289.878 147.643 290.018 146.8 290.258 145.973C290.498 145.146 292.278 143.65 295.598 141.483C298.925 139.316 301.158 138.333 302.298 138.533C303.438 138.726 304.515 139.1 305.528 139.653C306.535 140.206 307.431 140.906 308.218 141.753C309.005 142.606 309.635 143.556 310.108 144.603C310.588 145.656 310.881 146.756 310.988 147.903C311.101 149.056 311.028 150.196 310.768 151.323C310.508 152.45 310.075 153.506 309.468 154.493C308.861 155.473 308.115 156.333 307.228 157.073C306.348 157.813 305.368 158.393 304.288 158.813C303.208 159.226 302.091 159.46 300.938 159.513C299.778 159.56 298.645 159.423 297.538 159.103C296.425 158.783 295.395 158.293 294.448 157.633C293.495 156.973 292.675 156.18 291.988 155.253C291.295 154.326 290.771 153.313 290.418 152.213C290.058 151.113 289.885 149.986 289.898 148.833C289.911 147.673 290.108 146.546 290.488 145.453C290.868 144.366 291.411 143.37 292.118 142.463C292.831 141.55 293.668 140.773 294.628 140.133C295.595 139.493 296.635 139.023 297.748 138.723C298.868 138.43 300.005 138.32 301.158 138.393C302.311 138.466 303.425 138.723 304.498 139.163C305.558 139.603 306.525 140.203 307.398 140.963C308.271 141.723 309.001 142.596 309.588 143.583C310.175 144.583 310.585 145.646 310.818 146.773C311.058 147.906 311.108 149.046 310.968 150.193C310.828 151.346 310.511 152.443 310.018 153.483C309.518 154.53 308.868 155.47 308.068 156.303C307.261 157.13 306.348 157.81 305.328 158.343C304.301 158.87 304.875 158.136 307.048 156.143C309.235 154.15 310.111 153.526 309.678 154.273C309.245 155.013 308.731 155.696 308.138 156.323C307.538 156.943 306.875 157.483 306.148 157.943C305.421 158.403 304.651 158.77 303.838 159.043C303.018 159.31 302.178 159.48 301.318 159.553C300.465 159.62 299.611 159.583 298.758 159.443C297.911 159.303 297.091 159.066 296.298 158.733C295.505 158.393 294.765 157.963 294.078 157.443C293.385 156.923 292.768 156.33 292.228 155.663C291.681 154.996 291.225 154.273 290.858 153.493C290.485 152.713 290.215 151.903 290.048 151.063C289.875 150.216 289.805 149.363 289.838 148.503C289.878 147.643 290.018 146.8 290.258 145.973C290.498 145.146 290.581 144.456 290.508 143.903C290.435 143.363 291.675 142.043 294.228 139.943C296.781 137.85 298.555 136.563 299.548 136.083C300.541 135.603 301.385 135.2 302.078 134.873C302.771 134.546 303.491 134.31 304.238 134.163C304.991 134.01 305.748 133.953 306.508 133.993C307.268 134.026 308.015 134.15 308.748 134.363C309.488 134.583 310.188 134.886 310.848 135.273C311.508 135.66 312.111 136.12 312.658 136.653C313.211 137.186 313.691 137.776 314.098 138.423C314.498 139.076 314.818 139.766 315.058 140.493C315.298 141.22 315.448 141.963 315.508 142.723C315.561 143.483 315.525 144.24 315.398 144.993C315.271 145.746 315.058 146.476 314.758 147.183C314.451 147.883 314.068 148.54 313.608 149.153C313.141 149.76 312.611 150.303 312.018 150.783C311.418 151.27 311.118 151.51 311.118 151.503Z" fill="#F0F0F0"/>
<path d="M314.903 68.7075C314.903 68.7075 316.297 67.6075 319.083 65.4075C321.863 63.2075 325.313 60.3475 329.433 56.8275C333.553 53.3075 336.807 50.3341 339.193 47.9075C341.587 45.4808 344.23 43.0841 347.123 40.7175C350.01 38.3508 352.22 36.5675 353.753 35.3675C355.287 34.1675 356.67 33.3708 357.903 32.9775C359.137 32.5841 360.403 32.3975 361.703 32.4175C362.997 32.4441 364.253 32.6741 365.473 33.1075C366.693 33.5408 367.813 34.1575 368.833 34.9575C369.853 35.7575 370.717 36.6975 371.423 37.7775C372.13 38.8641 372.647 40.0341 372.973 41.2875C373.3 42.5408 373.42 43.8141 373.333 45.1075C373.24 46.3941 372.943 47.6375 372.443 48.8375C371.943 50.0308 371.267 51.1141 370.413 52.0875C369.56 53.0608 368.573 53.8741 367.453 54.5275C366.333 55.1741 365.14 55.6275 363.873 55.8875C362.6 56.1408 361.32 56.1875 360.033 56.0275C358.753 55.8675 357.53 55.5075 356.363 54.9475C355.197 54.3808 354.15 53.6441 353.223 52.7375C352.297 51.8375 351.54 50.8075 350.953 49.6475C350.36 48.4941 349.97 47.2775 349.783 45.9975C349.597 44.7175 349.617 43.4408 349.843 42.1675C350.077 40.8941 350.507 39.6875 351.133 38.5475C351.753 37.4141 352.543 36.4108 353.503 35.5375C354.457 34.6641 355.527 33.9641 356.713 33.4375C357.893 32.9108 359.13 32.5875 360.423 32.4675C361.71 32.3475 362.983 32.4375 364.243 32.7375C365.503 33.0375 366.683 33.5308 367.783 34.2175C368.883 34.9041 369.843 35.7475 370.663 36.7475C371.49 37.7475 372.13 38.8541 372.583 40.0675C373.043 41.2741 373.3 42.5275 373.353 43.8275C373.4 45.1208 373.24 46.3875 372.873 47.6275C372.507 48.8675 371.95 50.0175 371.203 51.0775C370.463 52.1375 369.57 53.0508 368.523 53.8175C367.483 54.5841 366.963 54.9675 366.963 54.9675C366.963 54.9675 366.207 55.4908 364.693 56.5375C363.18 57.5775 360.977 59.2375 358.083 61.5175C355.19 63.7975 351.96 66.2775 348.393 68.9575C344.827 71.6308 341.913 73.9041 339.653 75.7775C337.393 77.6441 334.87 79.6775 332.083 81.8775C329.297 84.0841 327.543 85.4041 326.823 85.8375C326.103 86.2775 325.34 86.6241 324.533 86.8775C323.733 87.1308 322.91 87.2875 322.063 87.3475C321.23 87.4008 320.397 87.3508 319.563 87.1975C318.737 87.0508 317.937 86.8041 317.163 86.4575C316.397 86.1175 315.68 85.6875 315.013 85.1675C314.347 84.6541 313.75 84.0641 313.223 83.3975C312.703 82.7375 312.27 82.0241 311.923 81.2575C311.57 80.4841 311.317 79.6841 311.163 78.8575C311.01 78.0308 310.957 77.1975 311.003 76.3575C311.05 75.5175 311.197 74.6941 311.443 73.8875C311.697 73.0808 312.04 72.3175 312.473 71.5975C312.907 70.8708 313.42 70.2075 314.013 69.6075C314.607 69.0075 314.903 68.7075 314.903 68.7075Z" fill="#F0F0F0"/>
</g>
<defs>
<clipPath id="clip0_500_174">
<rect width="597.083" height="167.979" fill="white"/>
</clipPath>
</defs>
</svg>
